<?xml version="1.0" standalone="no"?>
<!DOCTYPE svg PUBLIC "-//W3C//DTD SVG 20010904//EN"
 "http://www.w3.org/TR/2001/REC-SVG-20010904/DTD/svg10.dtd">
<svg version="1.0" xmlns="http://www.w3.org/2000/svg"
 width="700.000000pt" height="700.000000pt" viewBox="0 0 700.000000 700.000000"
 preserveAspectRatio="xMidYMid meet">
<metadata>
Created by potrace 1.14, written by Peter Selinger 2001-2017
</metadata>
<g transform="translate(0.000000,700.000000) scale(0.100000,-0.100000)"
fill="#000000" stroke="none">
<path d="M3380 6100 c-369 -34 -745 -248 -952 -541 -64 -91 -1825 -3187 -1865
-3279 -60 -139 -77 -227 -77 -395 -1 -125 3 -164 22 -234 97 -356 370 -614
761 -719 87 -23 115 -26 286 -26 210 -1 270 7 431 59 193 63 363 165 511 308
l92 89 73 -78 c389 -412 1024 -470 1468 -135 62 47 182 165 227 224 l21 28 91
-94 c181 -187 393 -308 655 -373 126 -31 359 -43 486 -25 374 55 681 272 825
585 62 133 80 222 79 391 -1 128 -5 164 -26 246 -15 53 -42 130 -60 170 -46
99 -1799 3177 -1856 3259 -109 156 -323 331 -513 419 -214 99 -455 142 -679
121z m375 -385 c137 -40 218 -87 310 -180 133 -133 181 -258 173 -450 -4 -89
-11 -125 -34 -188 -26 -68 -691 -1256 -704 -1257 -13 0 -685 1198 -706 1260
-48 138 -50 277 -4 414 60 180 228 333 437 396 112 34 159 39 303 35 110 -2
152 -8 225 -30z m1596 -2215 c565 -993 761 -1346 783 -1410 26 -74 30 -100 30
-200 1 -144 -22 -225 -95 -334 -104 -157 -266 -255 -487 -297 -101 -19 -308
-6 -417 25 -248 73 -452 228 -576 438 -38 65 -39 68 -27 110 9 33 13 399 15
1527 2 817 7 1480 12 1475 4 -5 347 -605 762 -1334z m-2969 -1680 c9 -36 20
-73 23 -82 4 -11 -7 -37 -30 -72 -118 -178 -312 -314 -540 -381 -112 -33 -308
-45 -418 -25 -274 48 -483 214 -558 441 -20 61 -24 93 -24 189 1 101 4 125 30
200 22 63 218 414 760 1366 l730 1281 6 -1426 c5 -1268 7 -1433 21 -1491z
m567 848 l-349 -613 0 1225 0 1225 349 -612 349 -613 -349 -612z m1401 610 c0
-707 -4 -1118 -9 -1112 -6 5 -152 258 -325 562 l-315 552 306 538 c324 570
331 582 338 582 3 0 5 -505 5 -1122z m-480 -1000 c201 -352 366 -645 368 -649
6 -16 -73 -126 -142 -197 -152 -157 -337 -244 -566 -267 -149 -14 -358 36
-505 123 -83 49 -244 199 -277 258 l-17 30 382 672 c210 369 384 672 387 672
3 0 169 -289 370 -642z"/>
</g>
</svg>
